<svg xmlns="http://www.w3.org/2000/svg" viewBox="0 0 339.46 80"><path d="M160.89,98c12,0,19.45-8.16,19.93-17.89H172c-.61,5.37-4,10.07-11.09,10.07-7.95,0-11.35-5.44-11.35-13.06V69.39c0-7.62,3.4-13.06,11.35-13.06C168,56.33,171.37,61,172,66.4h8.84c-.48-9.73-7.89-17.89-19.93-17.89-14.34,0-20.8,9.18-20.8,21.35v6.8C140.09,88.84,146.55,98,160.89,98Z" transform="translate(-40.09 -40)" style="fill:#1b1b20"/><path d="M185.84,97.06h9.25V76.12c0-4.76,2.65-7.21,6.8-7.21,4.49,0,6.46,2.93,6.46,7V97.06h9.25V74.42c0-8.36-4.83-13.53-12.51-13.53-4.56,0-8.16,2-10,5V47.42h-9.25Z" transform="translate(-40.09 -40)" style="fill:#1b1b20"/><path d="M235.25,97.88c4.08,0,8.57-1.7,10.2-4.08v3.26h8.91V74.49c0-8.23-6.05-13.6-14.89-13.6-7.62,0-13.13,3.67-15.17,10.54h8.57c.95-1.91,2.93-3.33,6.12-3.33,3.81,0,6.12,2.44,6.12,5.71v4.83a14.2,14.2,0,0,0-9-3c-8.5,0-14.28,3.54-14.28,11.22C221.86,93.73,227.3,97.88,235.25,97.88Zm2.38-6.12c-3.87,0-6.8-1.9-6.8-5.17s2.72-5,7.07-5c4.15,0,7.21,1.84,7.21,5S241.71,91.76,237.63,91.76Z" transform="translate(-40.09 -40)" style="fill:#1b1b20"/><path d="M271.64,97.06H278V89.58h-3.74c-2.44,0-3.33-1-3.33-3.26V69.18h7.55V61.7H271V52.05h-9.31V61.7h-5v7.48h5V87C261.65,93.26,264.84,97.06,271.64,97.06Z" transform="translate(-40.09 -40)" style="fill:#1b1b20"/><path d="M283.11,97.06H304.8c9.52,0,16.12-5.44,16.12-13.39,0-6.46-3.95-10.2-8.84-11.22,3.33-1.91,6-5.51,6-11,0-7.14-5.23-12-13.6-12H283.11Zm9.25-7.48v-13h11.9c4.49,0,7.14,2.51,7.14,6.46s-2.52,6.52-7.07,6.52Zm0-20.4V56.94h9.93c3.94,0,6.25,2.32,6.25,5.92s-2.17,6.32-6.19,6.32Z" transform="translate(-40.09 -40)" style="fill:#1b1b20"/><path d="M339.62,97.88c10.6,0,16.66-6.94,16.66-16v-5c0-9.05-6.06-16-16.66-16S323,67.82,323,76.87v5C323,90.94,329,97.88,339.62,97.88Zm7.68-15.37c0,4.63-2.45,8.09-7.68,8.09s-7.69-3.46-7.69-8.09V76.26c0-4.63,2.45-8.1,7.69-8.1s7.68,3.47,7.68,8.1Z" transform="translate(-40.09 -40)" style="fill:#1b1b20"/><path d="M372.68,97.06h6.39V89.58h-3.74c-2.45,0-3.33-1-3.33-3.26V69.18h7.54V61.7H372V52.05h-9.32V61.7h-5v7.48h5V87C362.68,93.26,365.88,97.06,372.68,97.06Z" transform="translate(-40.09 -40)" style="fill:#1b1b20"/><path d="M99.09,71.39v7.83a2.77,2.77,0,0,1-1.57,2.55A43.19,43.19,0,0,1,80.09,86a43.18,43.18,0,0,1-17.42-4.21,2.78,2.78,0,0,1-1.58-2.55V71.39a2.21,2.21,0,0,1,3.08-2A42.14,42.14,0,0,0,80.09,73,42.2,42.2,0,0,0,96,69.44,2.21,2.21,0,0,1,99.09,71.39Z" transform="translate(-40.09 -40)" style="fill:#06f"/><path d="M119.63,89.73a18.89,18.89,0,0,1-19,17.28H90.09l-20,13V107l20-13h10.52a5.88,5.88,0,0,0,6-5.26,227.08,227.08,0,0,0-.15-30,5.57,5.57,0,0,0-5.23-5.06c-6.82-.48-14-.72-21.19-.72s-14.38.24-21.2.72a5.57,5.57,0,0,0-5.23,5.06,227.08,227.08,0,0,0-.15,30A5.88,5.88,0,0,0,59.56,94H70.09v13H59.58a18.88,18.88,0,0,1-19-17.28,240.2,240.2,0,0,1,.15-32A18.59,18.59,0,0,1,58,40.76c7.12-.51,14.62-.76,22.13-.76s15,.25,22.12.76a18.6,18.6,0,0,1,17.27,17A240.2,240.2,0,0,1,119.63,89.73Z" transform="translate(-40.09 -40)" style="fill:#06f"/></svg>