<svg xmlns="http://www.w3.org/2000/svg" viewBox="0 0 80 80"><path d="M99,71.39v7.83a2.77,2.77,0,0,1-1.57,2.55A43.19,43.19,0,0,1,80,86a43.18,43.18,0,0,1-17.42-4.21A2.78,2.78,0,0,1,61,79.22V71.39a2.21,2.21,0,0,1,3.08-2A42.14,42.14,0,0,0,80,73a42.2,42.2,0,0,0,15.93-3.54A2.21,2.21,0,0,1,99,71.39Z" transform="translate(-40 -40)" style="fill:#fff"/><path d="M119.54,89.73a18.88,18.88,0,0,1-19,17.28H90L70,120V107L90,94h10.52a5.88,5.88,0,0,0,6.06-5.26,227.08,227.08,0,0,0-.15-30,5.57,5.57,0,0,0-5.24-5.06C94.37,53.26,87.19,53,80,53s-14.37.24-21.19.72a5.57,5.57,0,0,0-5.24,5.06,227.08,227.08,0,0,0-.15,30A5.88,5.88,0,0,0,59.48,94H70v13H59.5a18.88,18.88,0,0,1-19-17.28,240.2,240.2,0,0,1,.15-32,18.59,18.59,0,0,1,17.27-17C65,40.25,72.5,40,80,40s15,.25,22.12.76a18.59,18.59,0,0,1,17.27,17A240.2,240.2,0,0,1,119.54,89.73Z" transform="translate(-40 -40)" style="fill:#fff"/></svg>