<?xml version="1.0" encoding="UTF-8"?>
<svg width="325px" height="20px" viewBox="0 0 325 20" version="1.1" xmlns="http://www.w3.org/2000/svg" xmlns:xlink="http://www.w3.org/1999/xlink">
    <path d="M254.309,2.7347 C250.855,2.6679 247.404,2.5115 243.812,2.4385 C240.633,2.3842 237.455,2.3299 234.276,2.2756 C230.408,2.1901 226.535,2.1942 222.801,2.2045 C219.622,2.1502 216.44,2.1856 213.261,2.1313 C212.153,2.1709 211.049,2.1208 210.079,2.1667 C209.389,2.1354 208.56,2.0978 207.866,2.1562 C200.405,1.9976 192.944,1.839 185.349,1.5845 C181.895,1.5177 178.444,1.3613 174.852,1.2882 C170.983,1.2027 166.972,1.2005 163.104,1.1149 C155.919,0.96885 148.73,0.9124 141.679,0.8622 C134.485,0.89538 127.434,0.84519 120.383,0.79499 C117.619,0.75949 114.716,0.71773 111.948,0.77186 C107.657,0.8468 103.371,0.83211 98.9418,0.9008 C91.7486,0.93398 84.5514,1.0568 77.2202,1.0837 C70.165,1.1232 63.1099,1.1626 56.1887,1.2979 C49.9616,1.3749 43.7386,1.3623 37.6537,1.3559 C32.1208,1.3745 26.5879,1.3931 21.055,1.4118 C18.7046,1.395 16.3502,1.4679 13.9998,1.4512 C12.4776,1.472 10.8173,1.4866 9.29504,1.5074 C8.18683,1.547 7.07863,1.5865 5.97042,1.6261 C5.00024,1.672 4.03005,1.7178 3.19788,1.7699 C2.36571,1.822 1.52542,2.0534 0.957091,2.3869 C0.384702,2.81 0.084285,3.3353 0.335938,3.8857 C0.587592,4.436 1.12341,4.8196 1.94339,5.0364 C3.03534,5.3554 4.13948,5.4054 5.24362,5.4555 C5.93371,5.4868 6.61973,5.6077 7.30575,5.7286 C7.99178,5.8495 8.6778,5.9704 9.36789,6.0017 C10.0539,6.1227 10.606,6.1477 11.1702,5.9038 C11.7304,5.7496 12.1608,5.4098 12.315,5.0575 C12.4612,4.8845 12.4693,4.7052 12.4774,4.5259 C14.2757,4.5176 16.074,4.5093 17.7343,4.4948 C21.1929,4.4719 24.6514,4.4491 28.11,4.4262 C35.9932,4.4243 44.0186,4.3391 51.9018,4.3372 C58.819,4.2915 65.8741,4.252 72.7953,4.1167 C79.1604,4.046 85.6594,4.0711 92.0245,4.0004 C96.1731,4.0088 100.188,3.9214 104.336,3.9298 C107.105,3.8757 110.011,3.8278 112.776,3.8633 C119.827,3.9135 127.02,3.8803 134.071,3.9305 C141.122,3.9807 148.173,4.0309 155.358,4.177 C162.267,4.3106 169.181,4.3545 176.09,4.4881 C179.406,4.5486 182.722,4.6092 186.035,4.7593 C186.157,5.1241 186.554,5.5014 187.098,5.7057 C187.642,5.91 188.048,6.1081 188.596,6.2228 C189.144,6.3374 189.696,6.3624 190.248,6.3875 C190.663,6.4062 191.215,6.4313 191.629,6.45 C192.871,6.5064 193.971,6.6461 195.213,6.7024 C196.731,6.7712 198.245,6.9297 199.764,6.9985 C203.49,7.1674 207.212,7.426 210.939,7.5949 C217.564,7.8953 224.327,8.2019 230.947,8.5918 C234.398,8.7483 237.71,8.8984 241.157,9.1445 C245.293,9.4218 249.292,9.6929 253.432,9.8806 C257.154,10.1392 260.877,10.3978 264.737,10.6626 C268.184,10.9087 271.626,11.2444 275.068,11.5801 C278.787,11.9283 282.501,12.3661 286.215,12.804 C289.52,13.1334 292.678,13.6359 295.84,14.0487 C298.04,14.3281 300.236,14.6971 302.436,14.9765 C304.36,15.2434 306.28,15.5999 308.201,15.9564 C309.849,16.2107 311.493,16.5547 313.137,16.8987 C315.329,17.3574 317.659,17.8223 319.705,18.454 C320.111,18.652 320.521,18.7604 320.926,18.9585 C322.014,19.3671 323.541,19.2566 324.263,18.5708 C324.986,17.885 324.621,16.7906 323.533,16.382 C322.173,15.8712 320.675,15.3542 319.169,15.0165 C318.349,14.7997 317.529,14.5829 316.705,14.4557 C314.923,14.1054 313.003,13.7489 311.221,13.3987 C308.067,12.8066 304.909,12.3041 301.746,11.8913 C297.898,11.3576 293.912,10.8176 290.064,10.2838 C286.487,9.8522 282.911,9.4206 279.335,8.989 C278.373,8.8556 277.407,8.8118 276.307,8.6721 C278.511,8.8619 280.715,9.0516 283.057,9.2476 C284.295,9.3936 285.399,9.4436 286.638,9.5896 C287.19,9.6146 287.6,9.723 288.152,9.748 C289.252,9.8877 290.214,10.0212 291.318,10.0712 C292.426,10.0316 293.409,9.7169 293.717,9.0123 C294.026,8.3077 293.644,7.5719 292.694,7.1695 C291.744,6.7672 290.652,6.4482 289.694,6.2251 C288.598,5.9958 287.64,5.7727 286.544,5.5434 C284.762,5.1932 283.114,4.9388 281.328,4.6782 C279.542,4.4176 277.89,4.2529 276.1,4.0819 C274.448,3.9172 272.795,3.7524 271.001,3.6711 C269.211,3.5001 267.555,3.425 265.765,3.2541 C263.694,3.1602 261.624,3.0663 259.42,2.8766 C259.144,2.8641 259.006,2.8578 258.73,2.8453 C257.212,2.7765 255.693,2.7077 254.309,2.7347 Z" id="Path" fill="#FFD000" fill-rule="nonzero"></path>
</svg>
